<svg version="1.1" id="Layer_1" xmlns="http://www.w3.org/2000/svg" xmlns:xlink="http://www.w3.org/1999/xlink" x="0px" y="0px"
	 width="100%" viewBox="0 0 997 997" enable-background="new 0 0 997 997" xml:space="preserve">
<path fill="#FFFFFF" opacity="1.000000" stroke="none" 
	d="
M998.000000,718.000000 
	C998.000000,811.307861 998.000000,904.615662 998.000000,997.961792 
	C665.782898,997.961792 333.565857,997.961792 1.000000,997.961792 
	C1.000000,904.975403 1.000000,811.950317 1.430076,718.259888 
	C72.475670,717.594543 143.091187,717.594543 213.898590,717.594543 
	C213.898590,713.776428 213.898590,710.390503 213.898590,706.747498 
	C146.167496,706.747498 78.725029,706.747498 11.072261,706.747498 
	C11.072261,618.078918 11.072261,529.671570 11.072261,441.098480 
	C337.791077,441.098480 664.289673,441.098480 990.903320,441.098480 
	C990.903320,529.755188 990.903320,618.165283 990.903320,706.964233 
	C913.237427,706.964233 835.815247,706.964233 758.437744,706.964233 
	C758.437744,710.615295 758.437744,713.868347 758.437744,717.533081 
	C760.694946,717.533081 762.666748,717.533081 764.638550,717.533081 
	C840.456848,717.533081 916.275208,717.529541 992.093506,717.552612 
	C994.062378,717.553223 996.031189,717.844360 998.000000,718.000000 
M162.161865,629.667725 
	C164.251617,632.533936 166.341354,635.400146 168.728363,638.940796 
	C169.986359,640.421997 171.244339,641.903259 173.209534,644.217163 
	C173.209534,636.675598 173.209534,630.575073 173.209534,624.474487 
	C172.698624,624.472046 172.187729,624.469604 171.676819,624.467163 
	C171.676819,627.640869 171.821075,630.824280 171.608795,633.983704 
	C171.518661,635.324951 170.680939,636.615967 169.956543,637.273071 
	C167.657120,634.144775 165.357681,631.016479 162.862320,627.240479 
	C161.847565,626.232117 160.832809,625.223755 159.503815,623.903137 
	C159.503815,630.879333 159.503815,636.896057 159.503815,642.912781 
	C159.977493,642.908142 160.451157,642.903564 160.924835,642.898926 
	C160.924835,640.869568 160.790939,638.829041 160.958176,636.813538 
	C161.174988,634.200806 161.631699,631.607910 162.161865,629.667725 
M565.050476,633.468201 
	C565.050476,633.468201 565.013855,633.396545 563.987122,633.187805 
	C563.729736,634.101013 563.472412,635.014282 563.036682,636.679382 
	C563.128174,638.773804 563.219666,640.868286 563.311157,642.962708 
	C563.835022,642.942749 564.358826,642.922791 564.882690,642.902893 
	C564.882690,640.587891 564.882690,638.272949 565.488281,635.364868 
	C566.485168,635.334717 567.482178,635.308838 568.478943,635.273743 
	C572.025574,635.149109 574.080933,633.521118 574.082153,629.768677 
	C574.083374,626.209656 571.898071,624.716125 568.767944,624.405151 
	C567.166687,624.246033 565.511475,624.628967 563.182129,625.277771 
	C563.133850,627.587891 562.969116,629.906128 563.130310,632.201538 
	C563.164856,632.693176 564.380554,633.101807 565.050476,633.468201 
M858.963501,634.218811 
	C860.556763,631.578064 861.571838,627.845032 863.908203,626.608276 
	C866.181641,625.404846 869.808472,626.758118 873.796509,627.061523 
	C869.822266,623.828979 866.286621,622.957092 862.386353,624.865845 
	C858.215942,626.906616 856.491821,630.386597 857.120300,635.731750 
	C859.526245,642.508484 863.661499,644.796204 870.034058,643.033081 
	C875.901855,641.409546 873.619568,637.105469 873.672424,633.030701 
	C871.228271,633.143799 869.164307,633.239258 867.100281,633.334717 
	C867.105408,633.723999 867.110535,634.113281 867.115662,634.502502 
	C868.618958,634.751404 870.122253,635.000244 871.587891,635.242859 
	C872.029785,640.633484 869.182922,643.304443 864.494385,641.223022 
	C862.163147,640.188110 860.723999,637.143860 858.963501,634.218811 
M524.995728,630.997559 
	C524.995728,630.997559 524.948792,631.037537 524.372192,631.656128 
	C524.304260,632.626648 524.620667,633.992859 524.100708,634.497986 
	C522.041748,636.497925 519.933350,639.001465 522.354492,641.226074 
	C524.035645,642.770874 527.373352,642.893188 529.982971,642.937012 
	C532.442688,642.978333 534.918091,642.085205 537.244141,641.630981 
	C536.554993,640.101929 535.499817,637.760742 534.419373,635.363464 
	C534.135132,635.792847 533.749451,636.375427 533.218201,637.178040 
	C531.824585,635.985046 530.459778,634.816711 529.079895,633.635437 
	C530.094543,632.349243 531.846985,631.109131 531.747437,630.041748 
	C531.562988,628.063660 530.723633,625.077209 529.368774,624.554810 
	C527.761963,623.935181 524.938538,624.979248 523.351379,626.213806 
	C521.722229,627.481079 522.690247,629.680664 524.995728,630.997559 
M405.500000,718.015015 
	C467.474213,718.015015 529.452942,718.415833 591.419312,717.716064 
	C605.812988,717.553528 618.145508,719.672546 628.596619,729.950867 
	C629.921692,731.254028 632.856079,731.750793 634.841492,731.415649 
	C646.315369,729.479065 657.728394,727.182007 669.161499,725.004028 
	C690.747864,720.892151 712.333740,716.778076 734.970337,712.464783 
	C733.026978,711.793274 732.135559,711.358276 731.195435,711.178833 
	C703.105774,705.818420 674.880005,701.072937 646.981079,694.859436 
	C635.507324,692.304077 626.368103,693.389404 618.252075,701.891846 
	C614.567627,705.751709 609.950623,706.531372 604.668030,706.525879 
	C487.217194,706.402649 369.766205,706.431458 252.315216,706.431519 
	C250.982437,706.431519 249.644165,706.510376 248.317963,706.417297 
	C244.934265,706.179688 243.516327,707.722412 243.391876,711.090698 
	C243.170242,717.089600 243.931320,718.011719 250.064468,718.012268 
	C301.542969,718.017029 353.021484,718.015015 405.500000,718.015015 
M684.855164,544.499634 
	C684.855164,537.351990 684.855164,530.204346 684.855164,521.670044 
	C694.474365,534.851135 703.490967,546.403015 711.542542,558.592346 
	C715.334473,564.332825 719.647217,564.743530 725.171143,563.638977 
	C725.171143,542.831238 725.171143,522.286377 725.171143,501.778442 
	C721.559082,501.778442 718.323425,501.778442 714.591553,501.778442 
	C714.591553,515.431702 714.591553,528.775757 714.591553,543.418945 
	C712.881714,541.290161 711.945923,540.217041 711.110596,539.070740 
	C703.472839,528.590393 695.448914,518.359680 688.391052,507.501465 
	C684.645935,501.739685 680.358276,500.383698 674.203491,501.984802 
	C674.203491,522.538086 674.203491,543.101440 674.203491,563.705566 
	C677.813965,563.705566 681.195801,563.705566 684.855164,563.705566 
	C684.855164,557.432312 684.855164,551.465759 684.855164,544.499634 
M471.658295,553.807922 
	C468.720642,549.258423 465.782990,544.708923 462.657867,539.869141 
	C463.910156,539.397583 464.675201,539.164124 465.393829,538.830627 
	C473.502136,535.067383 477.159180,527.834778 476.040680,517.810913 
	C475.185913,510.150299 469.401398,503.084229 461.430359,502.269409 
	C452.775665,501.384674 443.960663,502.068756 435.256439,502.068756 
	C435.256439,522.636597 435.256439,543.195679 435.256439,563.643555 
	C438.908905,563.643555 442.286072,563.643555 445.944519,563.643555 
	C445.944519,555.836853 445.944519,548.390259 445.944519,539.054504 
	C448.761841,540.976135 451.050842,541.805298 452.176849,543.436951 
	C456.227142,549.306274 459.826996,555.484558 463.744019,561.449524 
	C464.455780,562.533386 465.801788,563.782715 466.952454,563.887695 
	C470.451782,564.206909 473.998871,564.003296 478.117218,564.003296 
	C475.733856,560.282471 473.864929,557.364746 471.658295,553.807922 
M888.403442,553.448120 
	C887.029114,553.293030 885.654785,553.137939 884.522095,553.010071 
	C884.522095,547.344421 884.522095,542.285461 884.522095,537.015991 
	C892.820679,537.015991 900.799011,537.015991 908.950928,537.015991 
	C908.950928,533.550232 908.950928,530.311462 908.950928,526.563599 
	C900.648865,526.563599 892.585510,526.563599 884.394836,526.563599 
	C884.394836,521.455200 884.394836,516.859619 884.394836,511.696411 
	C893.466553,511.696411 902.357117,511.696411 911.247070,511.696411 
	C911.247070,508.038025 911.247070,504.952545 911.247070,501.795532 
	C898.556763,501.795532 886.173462,501.795532 873.781067,501.795532 
	C873.781067,522.700500 873.781067,543.256775 873.781067,563.719727 
	C886.697266,563.719727 899.278687,563.719727 911.687988,563.719727 
	C911.687988,560.177124 911.687988,556.944641 911.687988,553.448547 
	C904.045898,553.448547 896.735779,553.448547 888.403442,553.448120 
M251.143265,542.499817 
	C251.143265,549.593628 251.143265,556.687378 251.143265,563.751038 
	C264.345947,563.751038 276.925659,563.751038 289.536224,563.751038 
	C289.536224,560.262817 289.536224,557.050537 289.536224,553.324890 
	C280.305511,553.324890 271.381866,553.324890 262.336243,553.324890 
	C262.336243,547.664490 262.336243,542.530457 262.336243,536.981079 
	C270.518311,536.981079 278.608063,536.981079 286.689148,536.981079 
	C286.689148,533.365784 286.689148,530.175659 286.689148,526.571655 
	C278.446228,526.571655 270.526978,526.571655 262.408875,526.571655 
	C262.408875,521.534729 262.408875,516.924561 262.408875,511.922729 
	C271.221954,511.922729 279.994965,511.922729 288.926208,511.922729 
	C288.926208,508.274017 288.926208,505.016785 288.926208,501.777405 
	C276.246735,501.777405 263.836121,501.777405 251.143265,501.777405 
	C251.143265,515.228516 251.143265,528.364197 251.143265,542.499817 
M601.507507,564.016968 
	C609.757019,564.016968 618.006592,564.016968 626.142944,564.016968 
	C626.142944,560.137512 626.142944,556.916443 626.142944,553.229248 
	C616.862915,553.229248 607.971802,553.229248 599.042358,553.229248 
	C599.042358,547.648499 599.042358,542.548767 599.042358,536.821045 
	C607.410034,536.821045 615.612488,536.821045 623.716064,536.821045 
	C623.716064,533.204712 623.716064,530.220276 623.716064,526.843262 
	C615.478149,526.843262 607.372620,526.843262 599.106934,526.843262 
	C599.106934,521.699219 599.106934,516.951477 599.106934,511.805756 
	C608.098938,511.805756 616.849060,511.805756 625.713074,511.805756 
	C625.713074,508.190308 625.713074,504.980804 625.713074,501.777863 
	C613.003052,501.777863 600.599609,501.777863 588.280640,501.777863 
	C588.280640,522.668579 588.280640,543.241333 588.280640,564.016968 
	C592.554626,564.016968 596.532532,564.016968 601.507507,564.016968 
M332.237885,560.683533 
	C331.971344,561.704712 331.704834,562.725830 331.432526,563.769104 
	C335.240479,563.769104 338.681305,563.769104 342.189301,563.769104 
	C343.715424,559.900085 345.320831,556.260376 346.571503,552.502625 
	C347.359558,550.134766 348.416046,549.037598 351.125946,549.109680 
	C358.599091,549.308533 366.080994,549.178406 373.827423,549.178406 
	C375.785736,554.106628 377.723328,558.982666 379.616760,563.747681 
	C383.317078,563.747681 386.710815,563.747681 390.121521,563.747681 
	C390.121521,563.160889 390.217499,562.797852 390.107819,562.514282 
	C382.577545,543.048035 374.985077,523.605774 367.518219,504.115326 
	C365.700714,499.371185 361.869415,502.202454 358.991211,501.510895 
	C356.266327,500.856171 354.918976,502.206604 353.925690,504.819397 
	C346.919800,523.247437 339.748047,541.612366 332.237885,560.683533 
M174.555939,557.351074 
	C174.555939,552.246338 174.555939,547.141602 174.555939,541.845276 
	C179.836533,541.585571 184.650925,541.708557 189.353439,541.042053 
	C198.958893,539.680725 205.344193,531.912903 205.554382,521.938843 
	C205.768173,511.794128 199.452927,503.118835 189.712769,502.108978 
	C181.220200,501.228485 172.564072,501.925507 163.827011,501.925507 
	C163.827011,522.579712 163.827011,543.207092 163.827011,563.851929 
	C167.501099,563.851929 170.790756,563.851929 174.555893,563.851929 
	C174.555893,561.898132 174.555893,560.101135 174.555939,557.351074 
M103.546249,544.380798 
	C104.632202,550.283691 103.028793,552.757568 97.488297,554.137634 
	C92.604813,555.354126 88.217010,554.365173 84.411613,551.241821 
	C82.292351,549.502441 80.533165,547.324341 78.544174,545.274353 
	C75.692047,547.782349 73.135033,550.030823 70.635376,552.228882 
	C78.379036,563.255920 89.114883,567.257202 101.436234,564.061584 
	C111.190277,561.531738 115.880424,555.057312 115.155022,545.089111 
	C114.714790,539.039551 111.363991,534.781860 106.233818,532.151245 
	C101.091637,529.514404 95.616631,527.531372 90.315445,525.198242 
	C86.748085,523.628174 83.731117,521.399475 84.810699,516.936951 
	C85.931030,512.306030 89.829453,510.233765 93.933693,511.066589 
	C98.535301,512.000305 102.813538,514.527710 107.757256,516.579529 
	C109.293579,515.003174 111.655991,512.579224 114.109978,510.061371 
	C107.210579,502.207184 98.754410,499.103455 88.580017,500.960266 
	C81.110626,502.323425 75.150253,507.970367 73.808426,514.722656 
	C72.310783,522.259033 74.942848,528.514893 82.083229,532.905273 
	C85.575562,535.052551 89.618813,536.282715 93.297493,538.154419 
	C96.641289,539.855774 99.828995,541.863892 103.546249,544.380798 
M816.626648,514.724670 
	C817.787048,515.550903 818.947510,516.377136 820.380615,517.397522 
	C822.752136,514.941528 824.921936,512.694397 827.078491,510.461060 
	C816.177429,497.682007 794.927490,496.980011 782.131958,508.798981 
	C769.067688,520.866028 768.972412,543.659485 781.933105,556.354187 
	C794.604126,568.765198 815.848083,567.891357 827.550842,554.847961 
	C825.326416,552.393921 823.123596,549.963684 820.792603,547.392090 
	C815.026855,552.831665 808.465881,556.008972 800.445190,554.423828 
	C791.486267,552.653076 786.055725,546.877930 784.159912,538.207214 
	C782.126709,528.908264 784.328186,520.447876 792.221130,514.587280 
	C799.844299,508.926971 808.024048,509.478333 816.626648,514.724670 
M534.126160,564.024048 
	C534.818359,562.711609 536.096375,561.406006 536.112000,560.085571 
	C536.263184,547.276489 536.202759,534.464783 536.202759,521.653870 
	C536.202759,515.035767 536.202759,508.417694 536.202759,501.877869 
	C532.351196,501.877869 528.987793,501.877869 525.655823,501.877869 
	C525.655823,522.738770 525.655823,543.165161 525.655823,564.025513 
	C528.314819,564.025513 530.767761,564.025513 534.126160,564.024048 
M457.177429,631.147278 
	C460.186310,635.270508 463.195190,639.393677 466.204071,643.516907 
	C466.514648,643.270874 466.825256,643.024780 467.135864,642.778748 
	C467.135864,636.692810 467.135864,630.606934 467.135864,624.520996 
	C466.729187,624.519409 466.322510,624.517822 465.915833,624.516235 
	C465.915833,629.001831 465.915833,633.487488 465.915833,637.973083 
	C465.523712,638.100464 465.131592,638.227844 464.739502,638.355225 
	C461.280914,633.570068 457.822327,628.784973 454.363739,623.999817 
	C454.095734,624.222107 453.827698,624.444397 453.559692,624.666687 
	C453.559692,630.745422 453.559692,636.824219 453.559692,642.903015 
	C454.021729,642.903320 454.483795,642.903687 454.945831,642.904053 
	C454.945831,638.832336 454.934357,634.760315 455.023895,630.690552 
	C455.025757,630.604675 456.192963,630.544495 457.177429,631.147278 
M843.921570,637.500122 
	C842.635071,636.261597 841.177307,635.155457 840.096741,633.757751 
	C837.622742,630.557800 835.333069,627.215393 832.968567,623.930847 
	C832.581787,624.115784 832.195007,624.300781 831.808228,624.485779 
	C831.808228,630.657227 831.808228,636.828674 831.808228,643.000122 
	C832.268860,643.013855 832.729492,643.027649 833.190125,643.041382 
	C833.190125,638.649780 833.190125,634.258240 833.190125,629.866638 
	C833.617554,629.762939 834.044983,629.659241 834.472351,629.555542 
	C836.846497,632.835938 839.061523,636.254761 841.708923,639.297424 
	C842.353821,640.038574 844.418945,639.543945 845.831116,639.617432 
	C845.831116,634.714722 845.831116,629.812012 845.831116,624.909302 
	C845.222839,624.932922 844.614624,624.956604 844.006348,624.980286 
	C844.006348,628.877380 844.006348,632.774414 843.921570,637.500122 
M139.286774,643.559509 
	C143.920929,642.933411 146.936493,640.387451 147.865662,635.798950 
	C148.690948,631.723389 147.697174,627.597229 143.954422,625.866028 
	C141.159180,624.573242 137.113449,624.298889 134.222534,625.299133 
	C130.042572,626.745422 128.860413,631.005737 129.446823,635.278748 
	C130.153397,640.427490 133.447861,643.079346 139.286774,643.559509 
M797.346985,635.193726 
	C799.380432,637.965881 801.413818,640.738037 804.177979,644.506470 
	C804.177979,636.692261 804.177979,630.612183 804.177979,624.532104 
	C803.728821,624.550476 803.279602,624.568848 802.830444,624.587280 
	C802.830444,629.236328 802.830444,633.885437 802.830444,639.351501 
	C798.602234,633.708008 794.996765,628.895752 790.716431,623.182800 
	C790.716431,630.920898 790.716431,636.938721 790.716431,642.956482 
	C791.159546,642.949219 791.602661,642.941956 792.045776,642.934692 
	C792.045776,638.343201 792.045776,633.751648 792.045776,627.822205 
	C794.261230,630.905029 795.590393,632.754639 797.346985,635.193726 
M607.052246,639.304382 
	C607.712585,640.040894 608.281555,640.894348 609.048950,641.493958 
	C612.597107,644.266479 617.613525,644.190491 620.906067,641.393311 
	C624.227234,638.571838 625.239502,633.197998 623.209534,629.165283 
	C621.153992,625.082031 616.977905,623.305176 611.273865,624.925720 
	C607.124084,626.104675 605.521973,629.643799 605.763611,633.844421 
	C605.855896,635.448242 606.409607,637.025513 607.052246,639.304382 
M346.690735,627.956482 
	C346.690735,632.907593 346.690735,637.858704 346.690735,642.573975 
	C350.529388,642.573975 353.911041,642.573975 357.292694,642.573975 
	C357.280579,642.191956 357.268494,641.809998 357.256378,641.427979 
	C354.566742,641.427979 351.877106,641.427979 349.017395,641.427979 
	C349.017395,638.741760 349.017395,636.679138 349.017395,634.521912 
	C351.809692,634.342712 354.308472,634.182373 356.807251,634.021973 
	C356.798004,633.674072 356.788757,633.326111 356.779510,632.978149 
	C354.233429,632.798523 351.687378,632.618896 348.967194,632.427002 
	C348.967194,630.279236 348.967194,628.371338 348.967194,625.874023 
	C351.837097,625.874023 354.469269,625.874023 357.101440,625.874023 
	C357.098969,625.357666 357.096497,624.841370 357.094025,624.325012 
	C354.097137,624.325012 351.088318,624.188538 348.114197,624.448792 
	C347.567719,624.496643 347.162109,626.154541 346.690735,627.956482 
M587.606201,624.357666 
	C586.671631,624.786865 584.938538,625.190308 584.923645,625.649231 
	C584.738403,631.376709 584.802368,637.112244 584.802368,642.845703 
	C585.218445,642.841980 585.634583,642.838257 586.050659,642.834534 
	C586.203369,640.311462 586.356140,637.788452 586.508850,635.265381 
	C586.879395,635.057129 587.249939,634.848816 587.620483,634.640564 
	C590.027893,637.537537 592.435242,640.434448 594.842651,643.331421 
	C595.133362,643.058716 595.424072,642.786011 595.714783,642.513306 
	C594.270752,640.171143 592.826782,637.828979 591.382812,635.486816 
	C591.882324,635.580383 592.381775,635.673950 592.881287,635.767517 
	C593.658569,633.209656 595.585327,630.247742 594.870544,628.214294 
	C594.231628,626.396423 590.678589,625.602844 587.606201,624.357666 
M746.962341,634.330383 
	C748.802673,634.330383 750.643005,634.330383 752.483337,634.330383 
	C752.490051,633.879761 752.496704,633.429138 752.503418,632.978577 
	C749.952271,632.783997 747.401062,632.589478 744.600037,632.375854 
	C744.600037,630.241577 744.600037,628.349243 744.600037,626.291931 
	C747.430115,626.150208 750.160461,626.013489 752.890808,625.876770 
	C752.856384,625.464417 752.821899,625.052124 752.787476,624.639832 
	C749.459534,624.639832 746.131531,624.639832 742.532104,624.639832 
	C742.532104,630.793823 742.532104,636.701477 742.532104,642.724487 
	C746.176453,642.724487 749.624634,642.724487 753.072754,642.724487 
	C753.106323,642.349976 753.139893,641.975403 753.173462,641.600891 
	C750.244995,641.378784 747.316589,641.156738 743.330566,640.854431 
	C744.424988,638.198853 745.213989,636.284424 746.962341,634.330383 
M764.741943,640.961426 
	C764.809448,641.450317 764.752014,642.302673 764.962585,642.375122 
	C770.503967,644.278931 777.965271,642.971985 779.062439,635.482056 
	C780.224182,627.551392 775.059937,623.553406 764.739380,624.791504 
	C764.739380,629.835754 764.739380,634.944458 764.741943,640.961426 
M661.413574,624.265076 
	C659.494568,624.265076 657.575500,624.265076 655.539917,624.265076 
	C655.539917,630.936584 655.539917,636.844849 655.539917,642.649597 
	C659.221741,642.649597 662.628601,642.649597 666.035522,642.649597 
	C666.059753,642.306458 666.084045,641.963257 666.108276,641.620117 
	C663.289246,641.390747 660.470215,641.161377 657.574463,640.925720 
	C657.574463,638.748901 657.574463,636.840881 657.574463,634.633362 
	C660.245483,634.405823 662.700867,634.196716 665.156250,633.987549 
	C665.145569,633.673035 665.134888,633.358521 665.124207,633.044006 
	C662.617615,632.788818 660.111023,632.533569 657.489868,632.266724 
	C657.489868,630.086426 657.489868,628.300537 657.489868,626.357056 
	C660.326233,626.178955 663.109009,626.004272 665.891846,625.829529 
	C665.889343,625.462830 665.886902,625.096130 665.884399,624.729431 
	C664.691772,624.574707 663.499146,624.419983 661.413574,624.265076 
M382.148224,627.813782 
	C382.114929,626.992065 382.411957,625.727783 381.996674,625.417847 
	C378.307465,622.664368 372.500549,623.801514 369.612518,627.692078 
	C366.530365,631.844116 367.344116,638.563049 371.297668,641.605713 
	C375.326904,644.706604 380.279205,644.083557 384.435669,639.151062 
	C379.014679,641.615723 373.751648,643.847229 371.024292,637.855896 
	C369.843750,635.262512 370.350250,630.818848 371.891113,628.330811 
	C374.028015,624.880371 378.088745,625.138672 382.148224,627.813782 
M479.488556,629.093872 
	C479.114471,630.531494 478.071381,632.217407 478.495056,633.358948 
	C479.644775,636.456970 480.767944,640.070618 483.102051,642.097778 
	C486.156006,644.750183 490.723541,644.316650 493.707520,641.736755 
	C495.310333,640.351013 495.126221,636.898499 495.792236,634.201050 
	C493.734467,634.201050 492.642242,634.201050 492.312225,634.201050 
	C492.645111,635.962158 493.461578,637.730957 493.090942,639.200439 
	C492.835815,640.212036 491.033722,641.190674 489.752228,641.520630 
	C485.546570,642.603455 481.728424,640.191895 480.652100,635.901550 
	C479.288971,630.468140 482.107239,627.311157 487.214630,625.383179 
	C483.314972,623.882935 481.488678,625.937195 479.488556,629.093872 
M394.797333,633.521484 
	C394.797333,636.616516 394.797333,639.711487 394.797333,642.806519 
	C395.208557,642.805176 395.619812,642.803894 396.031036,642.802551 
	C396.155792,640.445190 396.280548,638.087891 396.454346,634.803406 
	C400.095154,638.079895 403.102081,640.785950 406.109009,643.492004 
	C406.463135,643.099731 406.817291,642.707458 407.171417,642.315247 
	C404.048798,639.533813 400.926178,636.752441 397.871094,634.031189 
	C399.724396,631.807800 401.000671,630.276672 402.276947,628.745544 
	C402.005920,628.489990 401.734863,628.234497 401.463837,627.978943 
	C399.973328,629.169067 398.482819,630.359192 396.530609,631.918030 
	C396.269958,629.046936 396.074432,626.893677 395.878937,624.740417 
	C395.518402,624.759460 395.157867,624.778503 394.797333,624.797546 
	C394.797333,627.394531 394.797333,629.991577 394.797333,633.521484 
M687.909302,642.716309 
	C688.517151,642.798950 689.125000,642.881592 689.732849,642.964294 
	C689.925781,642.700195 690.118713,642.436096 690.311707,642.172058 
	C687.167053,639.412109 684.022400,636.652161 680.933533,633.941223 
	C682.712280,631.801941 683.981384,630.275635 685.250427,628.749329 
	C684.973877,628.492859 684.697388,628.236389 684.420898,627.979980 
	C682.931335,629.154236 681.441772,630.328491 679.491455,631.865967 
	C679.265747,629.025940 679.097229,626.906555 678.928772,624.787170 
	C678.719238,624.816589 678.509644,624.846008 678.300049,624.875427 
	C678.300049,630.822510 678.300049,636.769653 678.300049,642.716736 
	C678.664185,642.713196 679.028320,642.709656 679.392456,642.706055 
	C679.392456,640.398743 679.392456,638.091431 679.392456,635.784119 
	C680.056213,635.322632 680.719971,634.861145 681.383667,634.399658 
	C683.376465,637.013184 685.369263,639.626709 687.909302,642.716309 
M213.722900,643.112244 
	C216.433151,643.112244 219.143402,643.112244 221.853653,643.112244 
	C221.845200,642.581238 221.836731,642.050232 221.828262,641.519226 
	C218.989105,641.351318 216.149948,641.183411 213.250458,641.011963 
	C213.250458,638.630554 213.250458,636.665039 213.250458,634.540894 
	C215.943512,634.371338 218.516403,634.209290 221.089310,634.047302 
	C221.067093,633.670410 221.044876,633.293579 221.022659,632.916687 
	C218.469879,632.769592 215.917099,632.622559 213.334198,632.473755 
	C213.334198,630.325684 213.334198,628.392639 213.334198,625.857544 
	C216.321854,625.857544 219.105835,625.857544 221.889832,625.857544 
	C221.872375,625.490845 221.854935,625.124146 221.837479,624.757446 
	C218.436249,624.757446 215.035019,624.757446 211.275925,624.757446 
	C211.275925,630.356750 211.218445,635.657593 211.343262,640.954163 
	C211.360321,641.677063 212.287140,642.378540 213.722900,643.112244 
M239.769104,624.405640 
	C237.707611,624.405640 235.646118,624.405640 233.801056,624.405640 
	C233.801056,631.100647 233.801056,637.052124 233.801056,643.003662 
	C234.174728,643.027161 234.548416,643.050598 234.922089,643.074097 
	C235.159103,640.618774 235.396133,638.163452 235.633148,635.708130 
	C236.002167,636.081909 236.371201,636.455627 236.740219,636.829346 
	C239.228653,634.970276 242.543274,633.589783 243.974991,631.118530 
	C245.429367,628.608154 243.923981,625.634460 239.769104,624.405640 
M278.899658,639.506531 
	C278.449097,634.531555 277.998566,629.556519 277.548035,624.581543 
	C276.485962,629.338074 275.948242,634.118835 276.745605,638.665527 
	C277.073120,640.533020 280.105621,642.815186 282.226349,643.213928 
	C284.118591,643.569641 287.438080,642.171875 288.403107,640.532593 
	C291.355255,635.517761 289.586365,629.971130 288.926483,624.608276 
	C287.918793,628.077881 287.974091,631.574646 287.906616,635.069092 
	C287.786957,641.268677 284.982086,642.952576 278.899658,639.506531 
M111.808685,634.101624 
	C112.876244,632.221680 113.943794,630.341675 115.011353,628.461731 
	C114.818199,628.290710 114.625053,628.119690 114.431908,627.948669 
	C112.953079,629.155701 111.474251,630.362671 109.458504,632.007935 
	C109.255493,629.014709 109.113297,626.918274 108.971107,624.821838 
	C108.688942,624.850037 108.406776,624.878296 108.124611,624.906555 
	C108.124611,630.910645 108.124611,636.914734 108.124611,642.918823 
	C108.366768,642.937988 108.608932,642.957153 108.851089,642.976257 
	C109.088722,640.535461 109.326363,638.094604 109.647346,634.797668 
	C113.201439,638.116943 116.119751,640.842468 119.038063,643.567993 
	C119.422874,643.118469 119.807686,642.668945 120.192497,642.219482 
	C117.558838,639.716431 114.925186,637.213379 111.808685,634.101624 
M327.178131,640.138123 
	C327.658112,641.103638 328.138092,642.069153 329.048065,643.899658 
	C331.785950,637.038574 334.206665,630.972351 336.627380,624.906189 
	C336.148285,624.697876 335.669189,624.489563 335.190094,624.281250 
	C333.182495,628.972717 331.174927,633.664124 328.863983,639.064392 
	C326.576599,633.601624 324.609711,628.904297 322.642853,624.206970 
	C322.136139,624.447327 321.629456,624.687683 321.122772,624.928040 
	C323.070435,629.772461 325.018097,634.616882 327.178131,640.138123 
M196.598251,641.121277 
	C191.184082,642.154114 188.275986,640.699463 186.820709,636.230530 
	C185.311508,631.596069 187.173981,628.199707 192.718903,625.474854 
	C189.029770,624.694153 186.484146,626.182190 185.079742,629.940308 
	C183.265488,634.795166 185.124207,640.142639 189.417694,642.420105 
	C193.521896,644.597290 197.654816,643.657532 200.831680,639.164001 
	C199.172775,639.968872 198.243927,640.419495 196.598251,641.121277 
M258.817322,642.434326 
	C259.078522,642.579956 259.328003,642.762146 259.607208,642.851318 
	C259.705505,642.882812 259.997009,642.686462 259.997345,642.593445 
	C260.016632,637.206238 260.014557,631.819031 260.014557,626.401123 
	C262.342712,626.121338 263.997498,625.922485 265.652283,625.723633 
	C265.617981,625.445862 265.583649,625.168091 265.549316,624.890320 
	C261.434326,624.890320 257.319336,624.890320 253.204361,624.890320 
	C253.190460,625.169617 253.176575,625.448975 253.162689,625.728271 
	C254.995270,625.964478 256.827850,626.200623 258.746124,626.447876 
	C258.746124,631.629395 258.746124,636.609924 258.817322,642.434326 
M305.739197,639.015625 
	C305.739197,640.313843 305.739197,641.612122 305.739197,642.910339 
	C306.221741,642.907227 306.704285,642.904175 307.186829,642.901062 
	C307.186829,637.400146 307.186829,631.899292 307.186829,626.380432 
	C309.362701,626.115417 311.009247,625.914917 312.655792,625.714355 
	C312.620697,625.443115 312.585602,625.171875 312.550507,624.900635 
	C308.436890,624.900635 304.323242,624.900635 300.209625,624.900635 
	C300.194519,625.175171 300.179382,625.449646 300.164276,625.724182 
	C301.997742,625.963013 303.831238,626.201843 305.739288,626.450378 
	C305.739288,630.482117 305.739288,634.298035 305.739197,639.015625 
M641.285095,631.635437 
	C641.282288,633.626526 641.387695,635.625000 641.253784,637.607239 
	C640.985535,641.578247 639.462646,642.374451 635.731750,640.663757 
	C635.106384,640.376953 634.421753,640.219360 633.764526,640.002075 
	C633.574768,640.454712 633.385071,640.907288 633.195312,641.359924 
	C634.961121,642.118408 636.744446,643.495178 638.487427,643.445862 
	C639.965759,643.404114 642.566895,641.808777 642.652710,640.738953 
	C643.083191,635.375122 642.849976,629.958069 642.849976,624.559692 
	C642.328369,624.552124 641.806763,624.544556 641.285156,624.536987 
	C641.285156,626.596313 641.285156,628.655640 641.285095,631.635437 
M417.264984,631.659546 
	C417.264984,635.398865 417.264984,639.138245 417.264984,642.701782 
	C421.263306,642.701782 424.556274,642.701782 427.849274,642.701782 
	C427.869324,642.356201 427.889374,642.010620 427.909424,641.664978 
	C425.125519,641.414062 422.341644,641.163086 418.858704,640.849060 
	C418.858704,635.269714 418.858704,629.912903 418.858704,624.556030 
	C418.327484,624.557251 417.796265,624.558472 417.265045,624.559692 
	C417.265045,626.618469 417.265045,628.677185 417.264984,631.659546 
M699.061035,624.771484 
	C700.553467,625.440918 702.045898,626.110413 704.550049,627.233643 
	C704.550049,631.947815 704.550049,637.444275 704.550049,642.940674 
	C705.029968,642.912598 705.509888,642.884583 705.989807,642.856506 
	C705.989807,637.307861 705.989807,631.759277 705.989807,626.363525 
	C708.177002,626.103760 709.763367,625.915344 711.349792,625.726929 
	C711.334656,625.260742 711.319519,624.794617 711.304382,624.328430 
	C707.435913,624.328430 703.567505,624.328430 699.061035,624.771484 
M723.573364,643.002930 
	C726.301636,643.002930 729.029968,643.002930 731.758240,643.002930 
	C731.755615,642.582031 731.752930,642.161133 731.750305,641.740295 
	C729.071960,641.551147 726.393616,641.362061 723.046082,641.125671 
	C723.046082,635.444031 723.046082,630.219666 723.046082,624.995239 
	C722.538330,625.023987 722.030579,625.052734 721.522827,625.081482 
	C721.886169,631.036926 722.249451,636.992371 723.573364,643.002930 
M817.075867,627.113892 
	C817.075867,632.398438 817.075867,637.683044 817.075867,642.967590 
	C817.604309,642.942078 818.132751,642.916565 818.661194,642.891052 
	C818.661194,636.790955 818.661194,630.690918 818.661194,623.441650 
	C817.777893,625.012878 817.430786,625.630188 817.075867,627.113892 
z"/>
<path fill="#FFFFFF" opacity="1.000000" stroke="none" 
	d="
M1.000000,430.000000 
	C1.000000,287.032349 1.000000,144.064713 1.000000,1.048533 
	C333.225769,1.048533 665.451599,1.048533 998.000000,1.048533 
	C998.000000,143.693375 998.000000,286.386993 997.531372,429.533203 
	C665.041870,429.990509 333.020935,429.995239 1.000000,430.000000 
z"/>
<path fill="#0A0A0B" opacity="1.000000" stroke="none" 
	d="
M1.000000,430.468658 
	C333.020935,429.995239 665.041870,429.990509 997.531372,429.992889 
	C998.000000,525.687561 998.000000,621.375122 998.000000,717.531372 
	C996.031189,717.844360 994.062378,717.553223 992.093506,717.552612 
	C916.275208,717.529541 840.456848,717.533081 764.638550,717.533081 
	C762.666748,717.533081 760.694946,717.533081 758.437744,717.533081 
	C758.437744,713.868347 758.437744,710.615295 758.437744,706.964233 
	C835.815247,706.964233 913.237427,706.964233 990.903320,706.964233 
	C990.903320,618.165283 990.903320,529.755188 990.903320,441.098480 
	C664.289673,441.098480 337.791077,441.098480 11.072261,441.098480 
	C11.072261,529.671570 11.072261,618.078918 11.072261,706.747498 
	C78.725029,706.747498 146.167496,706.747498 213.898590,706.747498 
	C213.898590,710.390503 213.898590,713.776428 213.898590,717.594543 
	C143.091187,717.594543 72.475670,717.594543 1.430076,717.797241 
	C1.000000,622.312439 1.000000,526.624878 1.000000,430.468658 
z"/>
<path fill="#DA183A" opacity="1.000000" stroke="none" 
	d="
M405.000000,718.015015 
	C353.021484,718.015015 301.542969,718.017029 250.064468,718.012268 
	C243.931320,718.011719 243.170242,717.089600 243.391876,711.090698 
	C243.516327,707.722412 244.934265,706.179688 248.317963,706.417297 
	C249.644165,706.510376 250.982437,706.431519 252.315216,706.431519 
	C369.766205,706.431458 487.217194,706.402649 604.668030,706.525879 
	C609.950623,706.531372 614.567627,705.751709 618.252075,701.891846 
	C626.368103,693.389404 635.507324,692.304077 646.981079,694.859436 
	C674.880005,701.072937 703.105774,705.818420 731.195435,711.178833 
	C732.135559,711.358276 733.026978,711.793274 734.970337,712.464783 
	C712.333740,716.778076 690.747864,720.892151 669.161499,725.004028 
	C657.728394,727.182007 646.315369,729.479065 634.841492,731.415649 
	C632.856079,731.750793 629.921692,731.254028 628.596619,729.950867 
	C618.145508,719.672546 605.812988,717.553528 591.419312,717.716064 
	C529.452942,718.415833 467.474213,718.015015 405.000000,718.015015 
z"/>
<path fill="#0C0C0D" opacity="1.000000" stroke="none" 
	d="
M684.855164,544.999451 
	C684.855164,551.465759 684.855164,557.432312 684.855164,563.705566 
	C681.195801,563.705566 677.813965,563.705566 674.203491,563.705566 
	C674.203491,543.101440 674.203491,522.538086 674.203491,501.984802 
	C680.358276,500.383698 684.645935,501.739685 688.391052,507.501465 
	C695.448914,518.359680 703.472839,528.590393 711.110596,539.070740 
	C711.945923,540.217041 712.881714,541.290161 714.591553,543.418945 
	C714.591553,528.775757 714.591553,515.431702 714.591553,501.778442 
	C718.323425,501.778442 721.559082,501.778442 725.171143,501.778442 
	C725.171143,522.286377 725.171143,542.831238 725.171143,563.638977 
	C719.647217,564.743530 715.334473,564.332825 711.542542,558.592346 
	C703.490967,546.403015 694.474365,534.851135 684.855164,521.670044 
	C684.855164,530.204346 684.855164,537.351990 684.855164,544.999451 
z"/>
<path fill="#070708" opacity="1.000000" stroke="none" 
	d="
M471.827148,554.127441 
	C473.864929,557.364746 475.733856,560.282471 478.117218,564.003296 
	C473.998871,564.003296 470.451782,564.206909 466.952454,563.887695 
	C465.801788,563.782715 464.455780,562.533386 463.744019,561.449524 
	C459.826996,555.484558 456.227142,549.306274 452.176849,543.436951 
	C451.050842,541.805298 448.761841,540.976135 445.944519,539.054504 
	C445.944519,548.390259 445.944519,555.836853 445.944519,563.643555 
	C442.286072,563.643555 438.908905,563.643555 435.256439,563.643555 
	C435.256439,543.195679 435.256439,522.636597 435.256439,502.068756 
	C443.960663,502.068756 452.775665,501.384674 461.430359,502.269409 
	C469.401398,503.084229 475.185913,510.150299 476.040680,517.810913 
	C477.159180,527.834778 473.502136,535.067383 465.393829,538.830627 
	C464.675201,539.164124 463.910156,539.397583 462.657867,539.869141 
	C465.782990,544.708923 468.720642,549.258423 471.827148,554.127441 
M445.850037,513.612610 
	C445.850037,519.000671 445.850037,524.388672 445.850037,530.334412 
	C450.725403,529.946167 455.040253,529.989380 459.181549,529.162781 
	C463.228058,528.355103 465.086029,525.142822 465.121246,521.076294 
	C465.156250,517.028687 463.459259,513.545410 459.379028,512.889221 
	C454.991943,512.183655 450.413330,512.669312 445.850037,513.612610 
z"/>
<path fill="#0F0F10" opacity="1.000000" stroke="none" 
	d="
M888.914551,553.448364 
	C896.735779,553.448547 904.045898,553.448547 911.687988,553.448547 
	C911.687988,556.944641 911.687988,560.177124 911.687988,563.719727 
	C899.278687,563.719727 886.697266,563.719727 873.781067,563.719727 
	C873.781067,543.256775 873.781067,522.700500 873.781067,501.795532 
	C886.173462,501.795532 898.556763,501.795532 911.247070,501.795532 
	C911.247070,504.952545 911.247070,508.038025 911.247070,511.696411 
	C902.357117,511.696411 893.466553,511.696411 884.394836,511.696411 
	C884.394836,516.859619 884.394836,521.455200 884.394836,526.563599 
	C892.585510,526.563599 900.648865,526.563599 908.950928,526.563599 
	C908.950928,530.311462 908.950928,533.550232 908.950928,537.015991 
	C900.799011,537.015991 892.820679,537.015991 884.522095,537.015991 
	C884.522095,542.285461 884.522095,547.344421 884.522095,553.010071 
	C885.654785,553.137939 887.029114,553.293030 888.914551,553.448364 
z"/>
<path fill="#0C0C0D" opacity="1.000000" stroke="none" 
	d="
M251.143265,541.999878 
	C251.143265,528.364197 251.143265,515.228516 251.143265,501.777405 
	C263.836121,501.777405 276.246735,501.777405 288.926208,501.777405 
	C288.926208,505.016785 288.926208,508.274017 288.926208,511.922729 
	C279.994965,511.922729 271.221954,511.922729 262.408875,511.922729 
	C262.408875,516.924561 262.408875,521.534729 262.408875,526.571655 
	C270.526978,526.571655 278.446228,526.571655 286.689148,526.571655 
	C286.689148,530.175659 286.689148,533.365784 286.689148,536.981079 
	C278.608063,536.981079 270.518311,536.981079 262.336243,536.981079 
	C262.336243,542.530457 262.336243,547.664490 262.336243,553.324890 
	C271.381866,553.324890 280.305511,553.324890 289.536224,553.324890 
	C289.536224,557.050537 289.536224,560.262817 289.536224,563.751038 
	C276.925659,563.751038 264.345947,563.751038 251.143265,563.751038 
	C251.143265,556.687378 251.143265,549.593628 251.143265,541.999878 
z"/>
<path fill="#0C0C0D" opacity="1.000000" stroke="none" 
	d="
M601.009033,564.016968 
	C596.532532,564.016968 592.554626,564.016968 588.280640,564.016968 
	C588.280640,543.241333 588.280640,522.668579 588.280640,501.777863 
	C600.599609,501.777863 613.003052,501.777863 625.713074,501.777863 
	C625.713074,504.980804 625.713074,508.190308 625.713074,511.805756 
	C616.849060,511.805756 608.098938,511.805756 599.106934,511.805756 
	C599.106934,516.951477 599.106934,521.699219 599.106934,526.843262 
	C607.372620,526.843262 615.478149,526.843262 623.716064,526.843262 
	C623.716064,530.220276 623.716064,533.204712 623.716064,536.821045 
	C615.612488,536.821045 607.410034,536.821045 599.042358,536.821045 
	C599.042358,542.548767 599.042358,547.648499 599.042358,553.229248 
	C607.971802,553.229248 616.862915,553.229248 626.142944,553.229248 
	C626.142944,556.916443 626.142944,560.137512 626.142944,564.016968 
	C618.006592,564.016968 609.757019,564.016968 601.009033,564.016968 
z"/>
<path fill="#080809" opacity="1.000000" stroke="none" 
	d="
M332.433563,560.340515 
	C339.748047,541.612366 346.919800,523.247437 353.925690,504.819397 
	C354.918976,502.206604 356.266327,500.856171 358.991211,501.510895 
	C361.869415,502.202454 365.700714,499.371185 367.518219,504.115326 
	C374.985077,523.605774 382.577545,543.048035 390.107819,562.514282 
	C390.217499,562.797852 390.121521,563.160889 390.121521,563.747681 
	C386.710815,563.747681 383.317078,563.747681 379.616760,563.747681 
	C377.723328,558.982666 375.785736,554.106628 373.827423,549.178406 
	C366.080994,549.178406 358.599091,549.308533 351.125946,549.109680 
	C348.416046,549.037598 347.359558,550.134766 346.571503,552.502625 
	C345.320831,556.260376 343.715424,559.900085 342.189301,563.769104 
	C338.681305,563.769104 335.240479,563.769104 331.432526,563.769104 
	C331.704834,562.725830 331.971344,561.704712 332.433563,560.340515 
M357.235077,524.730408 
	C355.507111,529.365356 353.779114,534.000305 351.959320,538.881531 
	C357.984680,538.881531 363.660675,538.881531 369.907501,538.881531 
	C366.908478,531.144470 364.083710,523.856995 360.879913,515.591675 
	C359.490784,519.180786 358.548431,521.615601 357.235077,524.730408 
z"/>
<path fill="#101011" opacity="1.000000" stroke="none" 
	d="
M174.555908,557.827576 
	C174.555893,560.101135 174.555893,561.898132 174.555893,563.851929 
	C170.790756,563.851929 167.501099,563.851929 163.827011,563.851929 
	C163.827011,543.207092 163.827011,522.579712 163.827011,501.925507 
	C172.564072,501.925507 181.220200,501.228485 189.712769,502.108978 
	C199.452927,503.118835 205.768173,511.794128 205.554382,521.938843 
	C205.344193,531.912903 198.958893,539.680725 189.353439,541.042053 
	C184.650925,541.708557 179.836533,541.585571 174.555939,541.845276 
	C174.555939,547.141602 174.555939,552.246338 174.555908,557.827576 
M174.518997,522.500122 
	C174.518997,525.269531 174.518997,528.039001 174.518997,530.896790 
	C178.854889,530.896790 182.692886,531.257690 186.433365,530.807861 
	C191.402863,530.210083 194.437469,526.332397 194.437256,521.499512 
	C194.437042,516.666687 191.402847,512.777649 186.432465,512.194092 
	C182.559662,511.739380 178.590759,512.103088 174.518921,512.103088 
	C174.518921,515.511658 174.518921,518.505737 174.518997,522.500122 
z"/>
<path fill="#0A0A0B" opacity="1.000000" stroke="none" 
	d="
M103.315887,544.058777 
	C99.828995,541.863892 96.641289,539.855774 93.297493,538.154419 
	C89.618813,536.282715 85.575562,535.052551 82.083229,532.905273 
	C74.942848,528.514893 72.310783,522.259033 73.808426,514.722656 
	C75.150253,507.970367 81.110626,502.323425 88.580017,500.960266 
	C98.754410,499.103455 107.210579,502.207184 114.109978,510.061371 
	C111.655991,512.579224 109.293579,515.003174 107.757256,516.579529 
	C102.813538,514.527710 98.535301,512.000305 93.933693,511.066589 
	C89.829453,510.233765 85.931030,512.306030 84.810699,516.936951 
	C83.731117,521.399475 86.748085,523.628174 90.315445,525.198242 
	C95.616631,527.531372 101.091637,529.514404 106.233818,532.151245 
	C111.363991,534.781860 114.714790,539.039551 115.155022,545.089111 
	C115.880424,555.057312 111.190277,561.531738 101.436234,564.061584 
	C89.114883,567.257202 78.379036,563.255920 70.635376,552.228882 
	C73.135033,550.030823 75.692047,547.782349 78.544174,545.274353 
	C80.533165,547.324341 82.292351,549.502441 84.411613,551.241821 
	C88.217010,554.365173 92.604813,555.354126 97.488297,554.137634 
	C103.028793,552.757568 104.632202,550.283691 103.315887,544.058777 
z"/>
<path fill="#0A0A0B" opacity="1.000000" stroke="none" 
	d="
M816.328674,514.492676 
	C808.024048,509.478333 799.844299,508.926971 792.221130,514.587280 
	C784.328186,520.447876 782.126709,528.908264 784.159912,538.207214 
	C786.055725,546.877930 791.486267,552.653076 800.445190,554.423828 
	C808.465881,556.008972 815.026855,552.831665 820.792603,547.392090 
	C823.123596,549.963684 825.326416,552.393921 827.550842,554.847961 
	C815.848083,567.891357 794.604126,568.765198 781.933105,556.354187 
	C768.972412,543.659485 769.067688,520.866028 782.131958,508.798981 
	C794.927490,496.980011 816.177429,497.682007 827.078491,510.461060 
	C824.921936,512.694397 822.752136,514.941528 820.380615,517.397522 
	C818.947510,516.377136 817.787048,515.550903 816.328674,514.492676 
z"/>
<path fill="#101011" opacity="1.000000" stroke="none" 
	d="
M533.673462,564.024780 
	C530.767761,564.025513 528.314819,564.025513 525.655823,564.025513 
	C525.655823,543.165161 525.655823,522.738770 525.655823,501.877869 
	C528.987793,501.877869 532.351196,501.877869 536.202759,501.877869 
	C536.202759,508.417694 536.202759,515.035767 536.202759,521.653870 
	C536.202759,534.464783 536.263184,547.276489 536.112000,560.085571 
	C536.096375,561.406006 534.818359,562.711609 533.673462,564.024780 
z"/>
<path fill="#2C2C2D" opacity="1.000000" stroke="none" 
	d="
M456.996979,630.809814 
	C456.192963,630.544495 455.025757,630.604675 455.023895,630.690552 
	C454.934357,634.760315 454.945831,638.832336 454.945831,642.904053 
	C454.483795,642.903687 454.021729,642.903320 453.559692,642.903015 
	C453.559692,636.824219 453.559692,630.745422 453.559692,624.666687 
	C453.827698,624.444397 454.095734,624.222107 454.363739,623.999817 
	C457.822327,628.784973 461.280914,633.570068 464.739502,638.355225 
	C465.131592,638.227844 465.523712,638.100464 465.915833,637.973083 
	C465.915833,633.487488 465.915833,629.001831 465.915833,624.516235 
	C466.322510,624.517822 466.729187,624.519409 467.135864,624.520996 
	C467.135864,630.606934 467.135864,636.692810 467.135864,642.778748 
	C466.825256,643.024780 466.514648,643.270874 466.204071,643.516907 
	C463.195190,639.393677 460.186310,635.270508 456.996979,630.809814 
z"/>
<path fill="#2C2C2D" opacity="1.000000" stroke="none" 
	d="
M524.961792,631.047729 
	C522.690247,629.680664 521.722229,627.481079 523.351379,626.213806 
	C524.938538,624.979248 527.761963,623.935181 529.368774,624.554810 
	C530.723633,625.077209 531.562988,628.063660 531.747437,630.041748 
	C531.846985,631.109131 530.094543,632.349243 529.079895,633.635437 
	C530.459778,634.816711 531.824585,635.985046 533.218201,637.178040 
	C533.749451,636.375427 534.135132,635.792847 534.419373,635.363464 
	C535.499817,637.760742 536.554993,640.101929 537.244141,641.630981 
	C534.918091,642.085205 532.442688,642.978333 529.982971,642.937012 
	C527.373352,642.893188 524.035645,642.770874 522.354492,641.226074 
	C519.933350,639.001465 522.041748,636.497925 524.100708,634.497986 
	C524.620667,633.992859 524.304260,632.626648 525.020386,631.246826 
	C527.005249,630.618164 528.528748,630.703491 529.597900,630.047852 
	C530.115234,629.730591 530.233948,627.512268 529.726685,627.060669 
	C528.910767,626.334473 527.082336,625.773499 526.316406,626.223328 
	C525.467957,626.721619 525.285706,628.419678 524.911987,629.625793 
	C524.779419,630.053528 524.936768,630.571167 524.961792,631.047729 
M529.666809,641.223694 
	C530.514343,640.614197 531.361938,640.004700 532.496826,639.188599 
	C530.532288,637.461182 528.963013,636.081360 526.704407,634.095520 
	C525.448242,636.180725 524.439880,637.854614 523.431519,639.528503 
	C525.281799,640.189453 527.132019,640.850403 529.666809,641.223694 
z"/>
<path fill="#3D3D3E" opacity="1.000000" stroke="none" 
	d="
M843.963989,637.085815 
	C844.006348,632.774414 844.006348,628.877380 844.006348,624.980286 
	C844.614624,624.956604 845.222839,624.932922 845.831116,624.909302 
	C845.831116,629.812012 845.831116,634.714722 845.831116,639.617432 
	C844.418945,639.543945 842.353821,640.038574 841.708923,639.297424 
	C839.061523,636.254761 836.846497,632.835938 834.472351,629.555542 
	C834.044983,629.659241 833.617554,629.762939 833.190125,629.866638 
	C833.190125,634.258240 833.190125,638.649780 833.190125,643.041382 
	C832.729492,643.027649 832.268860,643.013855 831.808228,643.000122 
	C831.808228,636.828674 831.808228,630.657227 831.808228,624.485779 
	C832.195007,624.300781 832.581787,624.115784 832.968567,623.930847 
	C835.333069,627.215393 837.622742,630.557800 840.096741,633.757751 
	C841.177307,635.155457 842.635071,636.261597 843.963989,637.085815 
z"/>
<path fill="#2C2C2D" opacity="1.000000" stroke="none" 
	d="
M138.909363,643.592773 
	C133.447861,643.079346 130.153397,640.427490 129.446823,635.278748 
	C128.860413,631.005737 130.042572,626.745422 134.222534,625.299133 
	C137.113449,624.298889 141.159180,624.573242 143.954422,625.866028 
	C147.697174,627.597229 148.690948,631.723389 147.865662,635.798950 
	C146.936493,640.387451 143.920929,642.933411 138.909363,643.592773 
M133.763947,639.746582 
	C134.302536,640.129089 134.797546,640.605591 135.386841,640.878845 
	C139.067841,642.585632 142.361877,641.848206 144.598694,638.563293 
	C146.995483,635.043457 146.847137,631.221130 143.857864,628.052795 
	C141.273636,625.313782 137.903793,624.965515 134.802185,627.038757 
	C131.411942,629.304749 130.288376,632.657349 131.793625,636.614319 
	C132.140640,637.526611 132.742630,638.341919 133.763947,639.746582 
z"/>
<path fill="#262627" opacity="1.000000" stroke="none" 
	d="
M797.133301,634.898987 
	C795.590393,632.754639 794.261230,630.905029 792.045776,627.822205 
	C792.045776,633.751648 792.045776,638.343201 792.045776,642.934692 
	C791.602661,642.941956 791.159546,642.949219 790.716431,642.956482 
	C790.716431,636.938721 790.716431,630.920898 790.716431,623.182800 
	C794.996765,628.895752 798.602234,633.708008 802.830444,639.351501 
	C802.830444,633.885437 802.830444,629.236328 802.830444,624.587280 
	C803.279602,624.568848 803.728821,624.550476 804.177979,624.532104 
	C804.177979,630.612183 804.177979,636.692261 804.177979,644.506470 
	C801.413818,640.738037 799.380432,637.965881 797.133301,634.898987 
z"/>
<path fill="#2C2C2D" opacity="1.000000" stroke="none" 
	d="
M606.902649,638.959595 
	C606.409607,637.025513 605.855896,635.448242 605.763611,633.844421 
	C605.521973,629.643799 607.124084,626.104675 611.273865,624.925720 
	C616.977905,623.305176 621.153992,625.082031 623.209534,629.165283 
	C625.239502,633.197998 624.227234,638.571838 620.906067,641.393311 
	C617.613525,644.190491 612.597107,644.266479 609.048950,641.493958 
	C608.281555,640.894348 607.712585,640.040894 606.902649,638.959595 
M609.807495,639.505249 
	C612.977539,642.505066 616.951355,642.922058 619.463013,639.753296 
	C621.287964,637.450867 622.010803,633.337158 621.475403,630.344116 
	C620.838623,626.784424 617.327637,625.500916 613.577026,626.060974 
	C609.622986,626.651306 607.834045,629.412292 607.608887,632.931458 
	C607.483826,634.887024 608.655457,636.925537 609.807495,639.505249 
z"/>
<path fill="#383839" opacity="1.000000" stroke="none" 
	d="
M346.691101,627.512939 
	C347.162109,626.154541 347.567719,624.496643 348.114197,624.448792 
	C351.088318,624.188538 354.097137,624.325012 357.094025,624.325012 
	C357.096497,624.841370 357.098969,625.357666 357.101440,625.874023 
	C354.469269,625.874023 351.837097,625.874023 348.967194,625.874023 
	C348.967194,628.371338 348.967194,630.279236 348.967194,632.427002 
	C351.687378,632.618896 354.233429,632.798523 356.779510,632.978149 
	C356.788757,633.326111 356.798004,633.674072 356.807251,634.021973 
	C354.308472,634.182373 351.809692,634.342712 349.017395,634.521912 
	C349.017395,636.679138 349.017395,638.741760 349.017395,641.427979 
	C351.877106,641.427979 354.566742,641.427979 357.256378,641.427979 
	C357.268494,641.809998 357.280579,642.191956 357.292694,642.573975 
	C353.911041,642.573975 350.529388,642.573975 346.690735,642.573975 
	C346.690735,637.858704 346.690735,632.907593 346.691101,627.512939 
z"/>
<path fill="#262627" opacity="1.000000" stroke="none" 
	d="
M588.008789,624.357483 
	C590.678589,625.602844 594.231628,626.396423 594.870544,628.214294 
	C595.585327,630.247742 593.658569,633.209656 592.881287,635.767517 
	C592.381775,635.673950 591.882324,635.580383 591.382812,635.486816 
	C592.826782,637.828979 594.270752,640.171143 595.714783,642.513306 
	C595.424072,642.786011 595.133362,643.058716 594.842651,643.331421 
	C592.435242,640.434448 590.027893,637.537537 587.620483,634.640564 
	C587.249939,634.848816 586.879395,635.057129 586.508850,635.265381 
	C586.356140,637.788452 586.203369,640.311462 586.050659,642.834534 
	C585.634583,642.838257 585.218445,642.841980 584.802368,642.845703 
	C584.802368,637.112244 584.738403,631.376709 584.923645,625.649231 
	C584.938538,625.190308 586.671631,624.786865 588.008789,624.357483 
M586.216370,630.483398 
	C585.863037,634.060852 588.471680,633.940552 590.352783,633.114075 
	C591.767700,632.492371 592.571045,630.478638 593.646667,629.084656 
	C591.574402,627.763000 589.502136,626.441345 586.613159,624.598816 
	C586.393250,627.368896 586.304504,628.487244 586.216370,630.483398 
z"/>
<path fill="#3D3D3E" opacity="1.000000" stroke="none" 
	d="
M746.482666,634.350220 
	C745.213989,636.284424 744.424988,638.198853 743.330566,640.854431 
	C747.316589,641.156738 750.244995,641.378784 753.173462,641.600891 
	C753.139893,641.975403 753.106323,642.349976 753.072754,642.724487 
	C749.624634,642.724487 746.176453,642.724487 742.532104,642.724487 
	C742.532104,636.701477 742.532104,630.793823 742.532104,624.639832 
	C746.131531,624.639832 749.459534,624.639832 752.787476,624.639832 
	C752.821899,625.052124 752.856384,625.464417 752.890808,625.876770 
	C750.160461,626.013489 747.430115,626.150208 744.600037,626.291931 
	C744.600037,628.349243 744.600037,630.241577 744.600037,632.375854 
	C747.401062,632.589478 749.952271,632.783997 752.503418,632.978577 
	C752.496704,633.429138 752.490051,633.879761 752.483337,634.330383 
	C750.643005,634.330383 748.802673,634.330383 746.482666,634.350220 
z"/>
<path fill="#262627" opacity="1.000000" stroke="none" 
	d="
M764.740662,640.507324 
	C764.739380,634.944458 764.739380,629.835754 764.739380,624.791504 
	C775.059937,623.553406 780.224182,627.551392 779.062439,635.482056 
	C777.965271,642.971985 770.503967,644.278931 764.962585,642.375122 
	C764.752014,642.302673 764.809448,641.450317 764.740662,640.507324 
M771.966003,641.105957 
	C776.634521,638.840637 778.229797,635.748413 777.008545,631.331726 
	C775.870544,627.216064 772.892639,625.779297 766.485779,626.362610 
	C766.485779,631.221802 766.485779,636.096252 766.485779,641.270020 
	C768.192200,641.270020 769.651367,641.270020 771.966003,641.105957 
z"/>
<path fill="#3D3D3E" opacity="1.000000" stroke="none" 
	d="
M661.860046,624.265137 
	C663.499146,624.419983 664.691772,624.574707 665.884399,624.729431 
	C665.886902,625.096130 665.889343,625.462830 665.891846,625.829529 
	C663.109009,626.004272 660.326233,626.178955 657.489868,626.357056 
	C657.489868,628.300537 657.489868,630.086426 657.489868,632.266724 
	C660.111023,632.533569 662.617615,632.788818 665.124207,633.044006 
	C665.134888,633.358521 665.145569,633.673035 665.156250,633.987549 
	C662.700867,634.196716 660.245483,634.405823 657.574463,634.633362 
	C657.574463,636.840881 657.574463,638.748901 657.574463,640.925720 
	C660.470215,641.161377 663.289246,641.390747 666.108276,641.620117 
	C666.084045,641.963257 666.059753,642.306458 666.035522,642.649597 
	C662.628601,642.649597 659.221741,642.649597 655.539917,642.649597 
	C655.539917,636.844849 655.539917,630.936584 655.539917,624.265076 
	C657.575500,624.265076 659.494568,624.265076 661.860046,624.265137 
z"/>
<path fill="#2C2C2D" opacity="1.000000" stroke="none" 
	d="
M381.887482,627.569824 
	C378.088745,625.138672 374.028015,624.880371 371.891113,628.330811 
	C370.350250,630.818848 369.843750,635.262512 371.024292,637.855896 
	C373.751648,643.847229 379.014679,641.615723 384.435669,639.151062 
	C380.279205,644.083557 375.326904,644.706604 371.297668,641.605713 
	C367.344116,638.563049 366.530365,631.844116 369.612518,627.692078 
	C372.500549,623.801514 378.307465,622.664368 381.996674,625.417847 
	C382.411957,625.727783 382.114929,626.992065 381.887482,627.569824 
z"/>
<path fill="#2C2C2D" opacity="1.000000" stroke="none" 
	d="
M479.674774,628.755981 
	C481.488678,625.937195 483.314972,623.882935 487.214630,625.383179 
	C482.107239,627.311157 479.288971,630.468140 480.652100,635.901550 
	C481.728424,640.191895 485.546570,642.603455 489.752228,641.520630 
	C491.033722,641.190674 492.835815,640.212036 493.090942,639.200439 
	C493.461578,637.730957 492.645111,635.962158 492.312225,634.201050 
	C492.642242,634.201050 493.734467,634.201050 495.792236,634.201050 
	C495.126221,636.898499 495.310333,640.351013 493.707520,641.736755 
	C490.723541,644.316650 486.156006,644.750183 483.102051,642.097778 
	C480.767944,640.070618 479.644775,636.456970 478.495056,633.358948 
	C478.071381,632.217407 479.114471,630.531494 479.674774,628.755981 
z"/>
<path fill="#101011" opacity="1.000000" stroke="none" 
	d="
M394.797333,633.055054 
	C394.797333,629.991577 394.797333,627.394531 394.797333,624.797546 
	C395.157867,624.778503 395.518402,624.759460 395.878937,624.740417 
	C396.074432,626.893677 396.269958,629.046936 396.530609,631.918030 
	C398.482819,630.359192 399.973328,629.169067 401.463837,627.978943 
	C401.734863,628.234497 402.005920,628.489990 402.276947,628.745544 
	C401.000671,630.276672 399.724396,631.807800 397.871094,634.031189 
	C400.926178,636.752441 404.048798,639.533813 407.171417,642.315247 
	C406.817291,642.707458 406.463135,643.099731 406.109009,643.492004 
	C403.102081,640.785950 400.095154,638.079895 396.454346,634.803406 
	C396.280548,638.087891 396.155792,640.445190 396.031036,642.802551 
	C395.619812,642.803894 395.208557,642.805176 394.797333,642.806519 
	C394.797333,639.711487 394.797333,636.616516 394.797333,633.055054 
z"/>
<path fill="#101011" opacity="1.000000" stroke="none" 
	d="
M687.635620,642.478271 
	C685.369263,639.626709 683.376465,637.013184 681.383667,634.399658 
	C680.719971,634.861145 680.056213,635.322632 679.392456,635.784119 
	C679.392456,638.091431 679.392456,640.398743 679.392456,642.706055 
	C679.028320,642.709656 678.664185,642.713196 678.300049,642.716736 
	C678.300049,636.769653 678.300049,630.822510 678.300049,624.875427 
	C678.509644,624.846008 678.719238,624.816589 678.928772,624.787170 
	C679.097229,626.906555 679.265747,629.025940 679.491455,631.865967 
	C681.441772,630.328491 682.931335,629.154236 684.420898,627.979980 
	C684.697388,628.236389 684.973877,628.492859 685.250427,628.749329 
	C683.981384,630.275635 682.712280,631.801941 680.933533,633.941223 
	C684.022400,636.652161 687.167053,639.412109 690.311707,642.172058 
	C690.118713,642.436096 689.925781,642.700195 689.732849,642.964294 
	C689.125000,642.881592 688.517151,642.798950 687.635620,642.478271 
z"/>
<path fill="#3D3D3E" opacity="1.000000" stroke="none" 
	d="
M213.257812,643.101074 
	C212.287140,642.378540 211.360321,641.677063 211.343262,640.954163 
	C211.218445,635.657593 211.275925,630.356750 211.275925,624.757446 
	C215.035019,624.757446 218.436249,624.757446 221.837479,624.757446 
	C221.854935,625.124146 221.872375,625.490845 221.889832,625.857544 
	C219.105835,625.857544 216.321854,625.857544 213.334198,625.857544 
	C213.334198,628.392639 213.334198,630.325684 213.334198,632.473755 
	C215.917099,632.622559 218.469879,632.769592 221.022659,632.916687 
	C221.044876,633.293579 221.067093,633.670410 221.089310,634.047302 
	C218.516403,634.209290 215.943512,634.371338 213.250458,634.540894 
	C213.250458,636.665039 213.250458,638.630554 213.250458,641.011963 
	C216.149948,641.183411 218.989105,641.351318 221.828262,641.519226 
	C221.836731,642.050232 221.845200,642.581238 221.853653,643.112244 
	C219.143402,643.112244 216.433151,643.112244 213.257812,643.101074 
z"/>
<path fill="#383839" opacity="1.000000" stroke="none" 
	d="
M240.148926,624.519653 
	C243.923981,625.634460 245.429367,628.608154 243.974991,631.118530 
	C242.543274,633.589783 239.228653,634.970276 236.740219,636.829346 
	C236.371201,636.455627 236.002167,636.081909 235.633148,635.708130 
	C235.396133,638.163452 235.159103,640.618774 234.922089,643.074097 
	C234.548416,643.050598 234.174728,643.027161 233.801056,643.003662 
	C233.801056,637.052124 233.801056,631.100647 233.801056,624.405640 
	C235.646118,624.405640 237.707611,624.405640 240.148926,624.519653 
M235.264450,631.147644 
	C235.199020,634.958313 238.040649,634.089661 239.692322,633.310608 
	C240.958466,632.713501 242.522644,629.673157 242.257797,629.406860 
	C240.605560,627.745850 238.475739,626.559875 236.504150,625.216431 
	C236.090393,625.630005 235.676620,626.043518 235.262848,626.457031 
	C235.262848,627.741882 235.262848,629.026794 235.264450,631.147644 
z"/>
<path fill="#2C2C2D" opacity="1.000000" stroke="none" 
	d="
M279.125305,639.889648 
	C284.982086,642.952576 287.786957,641.268677 287.906616,635.069092 
	C287.974091,631.574646 287.918793,628.077881 288.926483,624.608276 
	C289.586365,629.971130 291.355255,635.517761 288.403107,640.532593 
	C287.438080,642.171875 284.118591,643.569641 282.226349,643.213928 
	C280.105621,642.815186 277.073120,640.533020 276.745605,638.665527 
	C275.948242,634.118835 276.485962,629.338074 277.548035,624.581543 
	C277.998566,629.556519 278.449097,634.531555 279.125305,639.889648 
z"/>
<path fill="#0F0F10" opacity="1.000000" stroke="none" 
	d="
M112.050110,634.406006 
	C114.925186,637.213379 117.558838,639.716431 120.192497,642.219482 
	C119.807686,642.668945 119.422874,643.118469 119.038063,643.567993 
	C116.119751,640.842468 113.201439,638.116943 109.647346,634.797668 
	C109.326363,638.094604 109.088722,640.535461 108.851089,642.976257 
	C108.608932,642.957153 108.366768,642.937988 108.124611,642.918823 
	C108.124611,636.914734 108.124611,630.910645 108.124611,624.906555 
	C108.406776,624.878296 108.688942,624.850037 108.971107,624.821838 
	C109.113297,626.918274 109.255493,629.014709 109.458504,632.007935 
	C111.474251,630.362671 112.953079,629.155701 114.431908,627.948669 
	C114.625053,628.119690 114.818199,628.290710 115.011353,628.461731 
	C113.943794,630.341675 112.876244,632.221680 112.050110,634.406006 
z"/>
<path fill="#2C2C2D" opacity="1.000000" stroke="none" 
	d="
M327.071960,639.799683 
	C325.018097,634.616882 323.070435,629.772461 321.122772,624.928040 
	C321.629456,624.687683 322.136139,624.447327 322.642853,624.206970 
	C324.609711,628.904297 326.576599,633.601624 328.863983,639.064392 
	C331.174927,633.664124 333.182495,628.972717 335.190094,624.281250 
	C335.669189,624.489563 336.148285,624.697876 336.627380,624.906189 
	C334.206665,630.972351 331.785950,637.038574 329.048065,643.899658 
	C328.138092,642.069153 327.658112,641.103638 327.071960,639.799683 
z"/>
<path fill="#2C2C2D" opacity="1.000000" stroke="none" 
	d="
M196.956665,640.995728 
	C198.243927,640.419495 199.172775,639.968872 200.831680,639.164001 
	C197.654816,643.657532 193.521896,644.597290 189.417694,642.420105 
	C185.124207,640.142639 183.265488,634.795166 185.079742,629.940308 
	C186.484146,626.182190 189.029770,624.694153 192.718903,625.474854 
	C187.173981,628.199707 185.311508,631.596069 186.820709,636.230530 
	C188.275986,640.699463 191.184082,642.154114 196.956665,640.995728 
z"/>
<path fill="#262627" opacity="1.000000" stroke="none" 
	d="
M258.781738,642.012390 
	C258.746124,636.609924 258.746124,631.629395 258.746124,626.447876 
	C256.827850,626.200623 254.995270,625.964478 253.162689,625.728271 
	C253.176575,625.448975 253.190460,625.169617 253.204361,624.890320 
	C257.319336,624.890320 261.434326,624.890320 265.549316,624.890320 
	C265.583649,625.168091 265.617981,625.445862 265.652283,625.723633 
	C263.997498,625.922485 262.342712,626.121338 260.014557,626.401123 
	C260.014557,631.819031 260.016632,637.206238 259.997345,642.593445 
	C259.997009,642.686462 259.705505,642.882812 259.607208,642.851318 
	C259.328003,642.762146 259.078522,642.579956 258.781738,642.012390 
z"/>
<path fill="#262627" opacity="1.000000" stroke="none" 
	d="
M305.739258,638.564819 
	C305.739288,634.298035 305.739288,630.482117 305.739288,626.450378 
	C303.831238,626.201843 301.997742,625.963013 300.164276,625.724182 
	C300.179382,625.449646 300.194519,625.175171 300.209625,624.900635 
	C304.323242,624.900635 308.436890,624.900635 312.550507,624.900635 
	C312.585602,625.171875 312.620697,625.443115 312.655792,625.714355 
	C311.009247,625.914917 309.362701,626.115417 307.186829,626.380432 
	C307.186829,631.899292 307.186829,637.400146 307.186829,642.901062 
	C306.704285,642.904175 306.221741,642.907227 305.739197,642.910339 
	C305.739197,641.612122 305.739197,640.313843 305.739258,638.564819 
z"/>
<path fill="#383839" opacity="1.000000" stroke="none" 
	d="
M641.285156,631.175171 
	C641.285156,628.655640 641.285156,626.596313 641.285156,624.536987 
	C641.806763,624.544556 642.328369,624.552124 642.849976,624.559692 
	C642.849976,629.958069 643.083191,635.375122 642.652710,640.738953 
	C642.566895,641.808777 639.965759,643.404114 638.487427,643.445862 
	C636.744446,643.495178 634.961121,642.118408 633.195312,641.359924 
	C633.385071,640.907288 633.574768,640.454712 633.764526,640.002075 
	C634.421753,640.219360 635.106384,640.376953 635.731750,640.663757 
	C639.462646,642.374451 640.985535,641.578247 641.253784,637.607239 
	C641.387695,635.625000 641.282288,633.626526 641.285156,631.175171 
z"/>
<path fill="#2C2C2D" opacity="1.000000" stroke="none" 
	d="
M858.881287,635.008545 
	C860.723999,637.143860 862.163147,640.188110 864.494385,641.223022 
	C869.182922,643.304443 872.029785,640.633484 871.587891,635.242859 
	C870.122253,635.000244 868.618958,634.751404 867.115662,634.502502 
	C867.110535,634.113281 867.105408,633.723999 867.100281,633.334717 
	C869.164307,633.239258 871.228271,633.143799 873.672424,633.030701 
	C873.619568,637.105469 875.901855,641.409546 870.034058,643.033081 
	C863.661499,644.796204 859.526245,642.508484 857.430176,635.365356 
	C858.120483,635.002197 858.500854,635.005371 858.881287,635.008545 
z"/>
<path fill="#3D3D3E" opacity="1.000000" stroke="none" 
	d="
M417.265015,631.197754 
	C417.265045,628.677185 417.265045,626.618469 417.265045,624.559692 
	C417.796265,624.558472 418.327484,624.557251 418.858704,624.556030 
	C418.858704,629.912903 418.858704,635.269714 418.858704,640.849060 
	C422.341644,641.163086 425.125519,641.414062 427.909424,641.664978 
	C427.889374,642.010620 427.869324,642.356201 427.849274,642.701782 
	C424.556274,642.701782 421.263306,642.701782 417.264984,642.701782 
	C417.264984,639.138245 417.264984,635.398865 417.265015,631.197754 
z"/>
<path fill="#3D3D3E" opacity="1.000000" stroke="none" 
	d="
M170.182983,637.929810 
	C170.680939,636.615967 171.518661,635.324951 171.608795,633.983704 
	C171.821075,630.824280 171.676819,627.640869 171.676819,624.467163 
	C172.187729,624.469604 172.698624,624.472046 173.209534,624.474487 
	C173.209534,630.575073 173.209534,636.675598 173.209534,644.217163 
	C171.244339,641.903259 169.986359,640.421997 169.017517,638.518433 
	C169.598755,638.040649 169.890869,637.985229 170.182983,637.929810 
z"/>
<path fill="#3D3D3E" opacity="1.000000" stroke="none" 
	d="
M699.380005,624.549927 
	C703.567505,624.328430 707.435913,624.328430 711.304382,624.328430 
	C711.319519,624.794617 711.334656,625.260742 711.349792,625.726929 
	C709.763367,625.915344 708.177002,626.103760 705.989807,626.363525 
	C705.989807,631.759277 705.989807,637.307861 705.989807,642.856506 
	C705.509888,642.884583 705.029968,642.912598 704.550049,642.940674 
	C704.550049,637.444275 704.550049,631.947815 704.550049,627.233643 
	C702.045898,626.110413 700.553467,625.440918 699.380005,624.549927 
z"/>
<path fill="#070708" opacity="1.000000" stroke="none" 
	d="
M723.093079,642.975342 
	C722.249451,636.992371 721.886169,631.036926 721.522827,625.081482 
	C722.030579,625.052734 722.538330,625.023987 723.046082,624.995239 
	C723.046082,630.219666 723.046082,635.444031 723.046082,641.125671 
	C726.393616,641.362061 729.071960,641.551147 731.750305,641.740295 
	C731.752930,642.161133 731.755615,642.582031 731.758240,643.002930 
	C729.029968,643.002930 726.301636,643.002930 723.093079,642.975342 
z"/>
<path fill="#2C2C2D" opacity="1.000000" stroke="none" 
	d="
M563.215088,635.927490 
	C563.472412,635.014282 563.729736,634.101013 564.867554,633.450439 
	C568.797180,633.767517 572.236511,633.986450 572.031128,629.588623 
	C571.840637,625.509155 568.450195,626.092529 565.676880,626.075928 
	C565.512329,626.074890 565.347595,626.086243 564.893555,625.951782 
	C564.363037,625.463440 564.121826,625.115234 563.880676,624.766968 
	C565.511475,624.628967 567.166687,624.246033 568.767944,624.405151 
	C571.898071,624.716125 574.083374,626.209656 574.082153,629.768677 
	C574.080933,633.521118 572.025574,635.149109 568.478943,635.273743 
	C567.482178,635.308838 566.485168,635.334717 564.768677,635.649536 
	C563.771057,635.931946 563.493103,635.929749 563.215088,635.927490 
z"/>
<path fill="#F5F5F5" opacity="1.000000" stroke="none" 
	d="
M565.182983,626.091858 
	C565.347595,626.086243 565.512329,626.074890 565.676880,626.075928 
	C568.450195,626.092529 571.840637,625.509155 572.031128,629.588623 
	C572.236511,633.986450 568.797180,633.767517 565.380920,633.554810 
	C565.013855,633.396545 565.050476,633.468201 565.019409,633.039001 
	C565.053223,630.437134 565.118103,628.264526 565.182983,626.091858 
z"/>
<path fill="#383839" opacity="1.000000" stroke="none" 
	d="
M858.922363,634.613708 
	C858.500854,635.005371 858.120483,635.002197 857.454773,635.005249 
	C856.491821,630.386597 858.215942,626.906616 862.386353,624.865845 
	C866.286621,622.957092 869.822266,623.828979 873.796509,627.061523 
	C869.808472,626.758118 866.181641,625.404846 863.908203,626.608276 
	C861.571838,627.845032 860.556763,631.578064 858.922363,634.613708 
z"/>
<path fill="#262627" opacity="1.000000" stroke="none" 
	d="
M161.985138,629.006470 
	C161.631699,631.607910 161.174988,634.200806 160.958176,636.813538 
	C160.790939,638.829041 160.924835,640.869568 160.924835,642.898926 
	C160.451157,642.903564 159.977493,642.908142 159.503815,642.912781 
	C159.503815,636.896057 159.503815,630.879333 159.503815,623.903137 
	C160.832809,625.223755 161.847565,626.232117 162.842926,627.806396 
	C162.544067,628.583679 162.264603,628.795105 161.985138,629.006470 
z"/>
<path fill="#262627" opacity="1.000000" stroke="none" 
	d="
M817.079834,626.680725 
	C817.430786,625.630188 817.777893,625.012878 818.661194,623.441650 
	C818.661194,630.690918 818.661194,636.790955 818.661194,642.891052 
	C818.132751,642.916565 817.604309,642.942078 817.075867,642.967590 
	C817.075867,637.683044 817.075867,632.398438 817.079834,626.680725 
z"/>
<path fill="#383839" opacity="1.000000" stroke="none" 
	d="
M162.073502,629.337097 
	C162.264603,628.795105 162.544067,628.583679 162.940887,628.130249 
	C165.357681,631.016479 167.657120,634.144775 170.069763,637.601440 
	C169.890869,637.985229 169.598755,638.040649 168.868881,638.181152 
	C166.341354,635.400146 164.251617,632.533936 162.073502,629.337097 
z"/>
<path fill="#3D3D3E" opacity="1.000000" stroke="none" 
	d="
M564.893555,625.951782 
	C565.118103,628.264526 565.053223,630.437134 565.020264,633.079224 
	C564.380554,633.101807 563.164856,632.693176 563.130310,632.201538 
	C562.969116,629.906128 563.133850,627.587891 563.531372,625.022339 
	C564.121826,625.115234 564.363037,625.463440 564.893555,625.951782 
z"/>
<path fill="#3D3D3E" opacity="1.000000" stroke="none" 
	d="
M563.125854,636.303467 
	C563.493103,635.929749 563.771057,635.931946 564.465881,635.946106 
	C564.882690,638.272949 564.882690,640.587891 564.882690,642.902893 
	C564.358826,642.922791 563.835022,642.942749 563.311157,642.962708 
	C563.219666,640.868286 563.128174,638.773804 563.125854,636.303467 
z"/>
<path fill="#FFFFFF" opacity="1.000000" stroke="none" 
	d="
M445.884155,513.123901 
	C450.413330,512.669312 454.991943,512.183655 459.379028,512.889221 
	C463.459259,513.545410 465.156250,517.028687 465.121246,521.076294 
	C465.086029,525.142822 463.228058,528.355103 459.181549,529.162781 
	C455.040253,529.989380 450.725403,529.946167 445.850037,530.334412 
	C445.850037,524.388672 445.850037,519.000671 445.884155,513.123901 
z"/>
<path fill="#F8F8F8" opacity="1.000000" stroke="none" 
	d="
M357.420593,524.390381 
	C358.548431,521.615601 359.490784,519.180786 360.879913,515.591675 
	C364.083710,523.856995 366.908478,531.144470 369.907501,538.881531 
	C363.660675,538.881531 357.984680,538.881531 351.959320,538.881531 
	C353.779114,534.000305 355.507111,529.365356 357.420593,524.390381 
z"/>
<path fill="#F5F5F5" opacity="1.000000" stroke="none" 
	d="
M174.518951,521.999939 
	C174.518921,518.505737 174.518921,515.511658 174.518921,512.103088 
	C178.590759,512.103088 182.559662,511.739380 186.432465,512.194092 
	C191.402847,512.777649 194.437042,516.666687 194.437256,521.499512 
	C194.437469,526.332397 191.402863,530.210083 186.433365,530.807861 
	C182.692886,531.257690 178.854889,530.896790 174.518997,530.896790 
	C174.518997,528.039001 174.518997,525.269531 174.518951,521.999939 
z"/>
<path fill="#EFEFEF" opacity="1.000000" stroke="none" 
	d="
M529.324585,641.367554 
	C527.132019,640.850403 525.281799,640.189453 523.431519,639.528503 
	C524.439880,637.854614 525.448242,636.180725 526.704407,634.095520 
	C528.963013,636.081360 530.532288,637.461182 532.496826,639.188599 
	C531.361938,640.004700 530.514343,640.614197 529.324585,641.367554 
z"/>
<path fill="#EFEFEF" opacity="1.000000" stroke="none" 
	d="
M524.978760,631.022644 
	C524.936768,630.571167 524.779419,630.053528 524.911987,629.625793 
	C525.285706,628.419678 525.467957,626.721619 526.316406,626.223328 
	C527.082336,625.773499 528.910767,626.334473 529.726685,627.060669 
	C530.233948,627.512268 530.115234,629.730591 529.597900,630.047852 
	C528.528748,630.703491 527.005249,630.618164 525.308716,630.937561 
	C524.948792,631.037537 524.995728,630.997559 524.978760,631.022644 
z"/>
<path fill="#F8F8F8" opacity="1.000000" stroke="none" 
	d="
M133.495605,639.474243 
	C132.742630,638.341919 132.140640,637.526611 131.793625,636.614319 
	C130.288376,632.657349 131.411942,629.304749 134.802185,627.038757 
	C137.903793,624.965515 141.273636,625.313782 143.857864,628.052795 
	C146.847137,631.221130 146.995483,635.043457 144.598694,638.563293 
	C142.361877,641.848206 139.067841,642.585632 135.386841,640.878845 
	C134.797546,640.605591 134.302536,640.129089 133.495605,639.474243 
z"/>
<path fill="#F8F8F8" opacity="1.000000" stroke="none" 
	d="
M609.525024,639.215942 
	C608.655457,636.925537 607.483826,634.887024 607.608887,632.931458 
	C607.834045,629.412292 609.622986,626.651306 613.577026,626.060974 
	C617.327637,625.500916 620.838623,626.784424 621.475403,630.344116 
	C622.010803,633.337158 621.287964,637.450867 619.463013,639.753296 
	C616.951355,642.922058 612.977539,642.505066 609.525024,639.215942 
z"/>
<path fill="#EFEFEF" opacity="1.000000" stroke="none" 
	d="
M586.216064,630.044495 
	C586.304504,628.487244 586.393250,627.368896 586.613159,624.598816 
	C589.502136,626.441345 591.574402,627.763000 593.646667,629.084656 
	C592.571045,630.478638 591.767700,632.492371 590.352783,633.114075 
	C588.471680,633.940552 585.863037,634.060852 586.216064,630.044495 
z"/>
<path fill="#F5F5F5" opacity="1.000000" stroke="none" 
	d="
M771.538208,641.187988 
	C769.651367,641.270020 768.192200,641.270020 766.485779,641.270020 
	C766.485779,636.096252 766.485779,631.221802 766.485779,626.362610 
	C772.892639,625.779297 775.870544,627.216064 777.008545,631.331726 
	C778.229797,635.748413 776.634521,638.840637 771.538208,641.187988 
z"/>
<path fill="#EFEFEF" opacity="1.000000" stroke="none" 
	d="
M235.263641,630.729614 
	C235.262848,629.026794 235.262848,627.741882 235.262848,626.457031 
	C235.676620,626.043518 236.090393,625.630005 236.504150,625.216431 
	C238.475739,626.559875 240.605560,627.745850 242.257797,629.406860 
	C242.522644,629.673157 240.958466,632.713501 239.692322,633.310608 
	C238.040649,634.089661 235.199020,634.958313 235.263641,630.729614 
z"/>
</svg>